<svg width="64" height="64" viewBox="0 0 64 64" fill="none" xmlns="http://www.w3.org/2000/svg">
  <!-- 背景圆形 -->
  <circle cx="32" cy="32" r="32" fill="url(#gradient)"/>
  
  <!-- 渐变定义 -->
  <defs>
    <linearGradient id="gradient" x1="0%" y1="0%" x2="100%" y2="100%">
      <stop offset="0%" style="stop-color:#00E5FF;stop-opacity:1" />
      <stop offset="100%" style="stop-color:#3F51B5;stop-opacity:1" />
    </linearGradient>
  </defs>
  
  <!-- 兔子耳朵 -->
  <ellipse cx="20" cy="16" rx="4" ry="10" fill="white" opacity="0.95"/>
  <ellipse cx="44" cy="16" rx="4" ry="10" fill="white" opacity="0.95"/>
  
  <!-- 兔子头部 -->
  <circle cx="32" cy="32" r="14" fill="white"/>
  
  <!-- 兔子眼睛 -->
  <circle cx="26" cy="28" r="2.5" fill="#333"/>
  <circle cx="38" cy="28" r="2.5" fill="#333"/>
  <circle cx="27" cy="27" r="1" fill="white"/>
  <circle cx="39" cy="27" r="1" fill="white"/>
  
  <!-- 兔子鼻子 -->
  <ellipse cx="32" cy="34" rx="1.5" ry="1" fill="#FF6B9D"/>
  
  <!-- 兔子嘴巴 -->
  <path d="M28 38 Q32 40 36 38" stroke="#333" stroke-width="2" fill="none"/>
  
  <!-- 服务器图标元素 -->
  <rect x="48" y="24" width="8" height="3" rx="1" fill="white" opacity="0.8"/>
  <rect x="48" y="30" width="8" height="3" rx="1" fill="white" opacity="0.8"/>
  <rect x="48" y="36" width="8" height="3" rx="1" fill="white" opacity="0.8"/>
  
  <!-- 连接线 -->
  <path d="M46 32 L48 32" stroke="white" stroke-width="2" opacity="0.6"/>
  <circle cx="46" cy="32" r="1" fill="white" opacity="0.8"/>
</svg>